<mxfile host="app.diagrams.net" modified="2021-09-22T11:04:15.200Z" agent="5.0 (Windows NT 10.0; Win64; x64) AppleWebKit/537.36 (KHTML, like Gecko) Chrome/93.0.4577.82 Safari/537.36" etag="34UM5ieBYTuGQp1DOYGk" version="15.2.9" type="github">
  <diagram id="aYBT90tf494fRw1ZX5RQ" name="Page-1">
    <mxGraphModel dx="1449" dy="562" grid="1" gridSize="10" guides="1" tooltips="1" connect="1" arrows="1" fold="1" page="1" pageScale="1" pageWidth="850" pageHeight="1100" math="0" shadow="0">
      <root>
        <mxCell id="0" />
        <mxCell id="1" parent="0" />
        <mxCell id="Nod-dQdXs_nRWFjd2kBW-1" value="" style="rounded=1;whiteSpace=wrap;html=1;" vertex="1" parent="1">
          <mxGeometry x="160" y="170" width="450" height="340" as="geometry" />
        </mxCell>
        <mxCell id="Nod-dQdXs_nRWFjd2kBW-2" value="linux os" style="text;html=1;strokeColor=none;fillColor=none;align=center;verticalAlign=middle;whiteSpace=wrap;rounded=0;" vertex="1" parent="1">
          <mxGeometry x="260" y="130" width="90" height="20" as="geometry" />
        </mxCell>
        <mxCell id="Nod-dQdXs_nRWFjd2kBW-4" value="docker installed" style="rounded=1;whiteSpace=wrap;html=1;" vertex="1" parent="1">
          <mxGeometry x="130" y="90" width="120" height="60" as="geometry" />
        </mxCell>
        <mxCell id="Nod-dQdXs_nRWFjd2kBW-5" value="" style="rounded=1;whiteSpace=wrap;html=1;" vertex="1" parent="1">
          <mxGeometry x="440" y="210" width="120" height="260" as="geometry" />
        </mxCell>
        <mxCell id="Nod-dQdXs_nRWFjd2kBW-10" value="" style="edgeStyle=orthogonalEdgeStyle;rounded=0;orthogonalLoop=1;jettySize=auto;html=1;" edge="1" parent="1" source="Nod-dQdXs_nRWFjd2kBW-6" target="Nod-dQdXs_nRWFjd2kBW-8">
          <mxGeometry relative="1" as="geometry" />
        </mxCell>
        <mxCell id="Nod-dQdXs_nRWFjd2kBW-6" value="docker deamon" style="text;html=1;strokeColor=none;fillColor=none;align=center;verticalAlign=middle;whiteSpace=wrap;rounded=0;" vertex="1" parent="1">
          <mxGeometry x="455" y="350" width="90" height="20" as="geometry" />
        </mxCell>
        <mxCell id="Nod-dQdXs_nRWFjd2kBW-8" value="docker cli" style="text;html=1;strokeColor=none;fillColor=none;align=center;verticalAlign=middle;whiteSpace=wrap;rounded=0;" vertex="1" parent="1">
          <mxGeometry x="455" y="260" width="90" height="20" as="geometry" />
        </mxCell>
        <mxCell id="Nod-dQdXs_nRWFjd2kBW-9" value="docker host" style="text;html=1;strokeColor=none;fillColor=none;align=center;verticalAlign=middle;whiteSpace=wrap;rounded=0;" vertex="1" parent="1">
          <mxGeometry x="455" y="180" width="80" height="20" as="geometry" />
        </mxCell>
        <mxCell id="Nod-dQdXs_nRWFjd2kBW-11" value="" style="endArrow=classic;html=1;" edge="1" parent="1">
          <mxGeometry width="50" height="50" relative="1" as="geometry">
            <mxPoint x="500" y="310" as="sourcePoint" />
            <mxPoint x="580" y="310" as="targetPoint" />
          </mxGeometry>
        </mxCell>
        <mxCell id="Nod-dQdXs_nRWFjd2kBW-12" value="docker server" style="text;html=1;strokeColor=none;fillColor=none;align=center;verticalAlign=middle;whiteSpace=wrap;rounded=0;" vertex="1" parent="1">
          <mxGeometry x="460" y="380" width="80" height="20" as="geometry" />
        </mxCell>
        <mxCell id="Nod-dQdXs_nRWFjd2kBW-13" value="docker image" style="text;html=1;strokeColor=none;fillColor=none;align=center;verticalAlign=middle;whiteSpace=wrap;rounded=0;" vertex="1" parent="1">
          <mxGeometry x="640" y="250" width="110" height="20" as="geometry" />
        </mxCell>
        <mxCell id="Nod-dQdXs_nRWFjd2kBW-14" value="REST API" style="rounded=1;whiteSpace=wrap;html=1;" vertex="1" parent="1">
          <mxGeometry x="620" y="290" width="120" height="50" as="geometry" />
        </mxCell>
      </root>
    </mxGraphModel>
  </diagram>
</mxfile>
